# xmcd
#
# Track frame offsets: 
#        150
#        20278
#        39114
#        71126
#        77097
#        86989
#        90804
#        95635
#        111575
#        131255
#        136699
#        141927
#        149477
#        156894
#        164455
#        169324
#        174260
#        184040
#        188778
#        208936
#        224263
#        243981
#        259547
#        280803
#        296156
#        310928
#        323665
#        336109
#
# Disc length: 4726 seconds
#
# Revision: 1
# Processed by: cddbd v1.5.2PL0 Copyright (c) Steve Scherf et al.
# Submitted via: ExactAudioCopy v1.1
#
DISCID=9912741c
DTITLE=Benny Goodman - CD1_Carnegie Hall Concert 1938 Part 1
DYEAR=2006
DGENRE=Jazz
TTITLE0=Don't Be That Way
TTITLE1=Sometimes I'm Happy
TTITLE2=One O'Clock Jump
TTITLE3=Sensation Rag
TTITLE4=I'm Coming Virginia
TTITLE5=When My Baby Smiles At Me
TTITLE6=Shine
TTITLE7=Blue Reverie
TTITLE8=Life Goes To A Party
TTITLE9=Honeysuckle Rose - Jam Session:Part 1 - Ensemble
TTITLE10=Honeysuckle Rose - Jam Session:Part 2 - Lester Young Solo
TTITLE11=Honeysuckle Rose - Jam Session:Part 3 - Count Basie Solo
TTITLE12=Honeysuckle Rose - Jam Session:Part 4 - Buck Clayton Solo
TTITLE13=Honeysuckle Rose - Jam Session:Part 5 - Johnny Hodges Solo
TTITLE14=Honeysuckle Rose - Jam Session:Part 6 - Rhythm Section
TTITLE15=Honeysuckle Rose - Jam Session:Part 7 - Harry Carney Solo
TTITLE16=Honeysuckle Rose - Jam Session:Part 8 - Benny Goodman Solo
TTITLE17=Honeysuckle Rose - Jam Session:Part 9 - Freddie Green Solo
TTITLE18=Honeysuckle Rose - Jam Session:Part 10 - Harry James Solo int
TTITLE18=o Jam
TTITLE19=Body And Soul
TTITLE20=Avalon
TTITLE21=The Man I Love
TTITLE22=I Got Rhythm
TTITLE23=Blue Skies
TTITLE24=Loch Lomond
TTITLE25=The Blue Room
TTITLE26=Swingtime In The Rockies
TTITLE27=Bei Mir Bist Du Schoen
EXTD=YEAR: 2006
EXTT0=
EXTT1=
EXTT2=
EXTT3=
EXTT4=
EXTT5=
EXTT6=
EXTT7=
EXTT8=
EXTT9=
EXTT10=
EXTT11=
EXTT12=
EXTT13=
EXTT14=
EXTT15=
EXTT16=
EXTT17=
EXTT18=
EXTT19=
EXTT20=
EXTT21=
EXTT22=
EXTT23=
EXTT24=
EXTT25=
EXTT26=
EXTT27=
PLAYORDER=
